<?xml version="1.0" encoding="utf-8"?>
<!-- Uploaded to: SVG Repo, www.svgrepo.com, Generator: SVG Repo Mixer Tools -->
<svg width="800px" height="800px" viewBox="0 0 24 24" fill="none" xmlns="http://www.w3.org/2000/svg">
<g id="style=doutone">
<g id="wifi-twowave">
<path id="vector (Stroke)" fill-rule="evenodd" clip-rule="evenodd" d="M21.5416 9.95357C15.7517 5.48211 8.24842 5.48211 2.45845 9.95357C2.13062 10.2067 1.65962 10.1462 1.40644 9.81839C1.15327 9.49056 1.21379 9.01956 1.54162 8.76638C7.87165 3.87784 16.1284 3.87784 22.4585 8.76638C22.7863 9.01956 22.8468 9.49056 22.5936 9.81839C22.3405 10.1462 21.8694 10.2067 21.5416 9.95357Z" fill="#000000"/>
<path id="vector (Stroke)_2" fill-rule="evenodd" clip-rule="evenodd" d="M16.7408 14.083C13.8612 11.8524 10.129 11.8524 7.24936 14.083C6.92189 14.3366 6.4508 14.2768 6.19715 13.9493C5.9435 13.6219 6.00333 13.1508 6.33079 12.8971C9.75117 10.2477 14.239 10.2477 17.6594 12.8971C17.9868 13.1508 18.0467 13.6219 17.793 13.9493C17.5393 14.2768 17.0683 14.3366 16.7408 14.083Z" fill="#000000"/>
<path id="ellipse (Stroke)" fill-rule="evenodd" clip-rule="evenodd" d="M10 18C10 16.8954 10.8954 16 12 16H12.01C13.1146 16 14.01 16.8954 14.01 18C14.01 19.1046 13.1146 20 12.01 20H12C10.8954 20 10 19.1046 10 18Z" fill="#BFBFBF"/>
</g>
</g>
</svg>